# xmcd CD database file
#
# Track frame offsets:
#	182
#	20132
#	35582
#	48782
#	63257
#	92507
#	117557
#	137507
#	157232
#
# Disc length: 2528 seconds
#
# Revision: 1
# Processed by: cddbd v1.5.2PL0 Copyright (c) Steve Scherf et al.
# Submitted via: CDex 1.51
#
DISCID=7709de09
DTITLE=Bill Frisell and Vernon Reid - Smash and Scatteration
DYEAR=1900
DGENRE=Jazz
TTITLE0=Landscapes in Alternative History
TTITLE1=Size 10? Sneaks
TTITLE2=Amarillo, Barbados
TTITLE3=Last Nights of Paris
TTITLE4=Burden of Dreams
TTITLE5=Dark Skin
TTITLE6=Fr, Fr, Frisell
TTITLE7=Small Hands
TTITLE8=Black Light
EXTD=
EXTT0=
EXTT1=
EXTT2=
EXTT3=
EXTT4=
EXTT5=
EXTT6=
EXTT7=
EXTT8=
PLAYORDER=
